<?xml version="1.0" encoding="UTF-8" standalone="no" ?>
<!DOCTYPE svg PUBLIC "-//W3C//DTD SVG 1.1//EN" "http://www.w3.org/Graphics/SVG/1.1/DTD/svg11.dtd">
<svg xmlns="http://www.w3.org/2000/svg" xmlns:xlink="http://www.w3.org/1999/xlink" version="1.1" width="445" height="445" viewBox="0 0 445 445" xml:space="preserve">
<desc>Created with Fabric.js 1.7.22</desc>
<defs>
</defs>
<g id="icon" style="stroke: none; stroke-width: 1; stroke-dasharray: none; stroke-linecap: butt; stroke-linejoin: miter; stroke-miterlimit: 10; fill: none; fill-rule: nonzero; opacity: 1;" transform="translate(-2.4722222222222285 -2.4722222222222285) scale(4.94 4.94)" >
	<path d="M 76.688 25.201 c 0.776 -5.118 -0.913 -10.3 -4.588 -13.975 s -8.858 -5.363 -13.976 -4.587 C 55.057 2.47 50.197 0 45 0 c -5.197 0 -10.056 2.47 -13.125 6.639 c -5.117 -0.777 -10.3 0.912 -13.975 4.587 s -5.364 8.857 -4.587 13.975 c -4.168 3.07 -6.638 7.929 -6.638 13.125 c 0 5.393 2.644 10.387 7.091 13.437 c 0.759 2.67 2.183 5.103 4.135 7.055 c 6.096 6.097 16.014 6.317 22.389 0.604 c 0.156 0.047 0.316 0.081 0.473 0.124 V 89 c 0 0.553 0.448 1 1 1 h 6.477 c 0.553 0 1 -0.447 1 -1 V 64.29 l 3.106 -2.954 c 2.545 1.495 5.385 2.236 8.217 2.236 c 4.216 0 8.405 -1.62 11.539 -4.754 c 1.951 -1.951 3.375 -4.383 4.135 -7.055 c 4.447 -3.05 7.091 -8.043 7.091 -13.437 C 83.326 33.13 80.856 28.271 76.688 25.201 z M 47.549 63.137 c -0.198 0.188 -0.311 0.451 -0.311 0.725 V 88 h -4.477 V 53.759 c 0 -0.253 -0.096 -0.496 -0.268 -0.681 l -6.138 -6.601 l 1.143 -1.186 l 5.745 5.956 c 0.283 0.294 0.715 0.385 1.094 0.233 c 0.378 -0.153 0.625 -0.52 0.625 -0.928 v -8.664 h 2.275 v 16.162 c 0 0.4 0.238 0.762 0.606 0.919 c 0.368 0.159 0.795 0.081 1.084 -0.195 l 4.859 -4.64 l 1.595 1.551 L 47.549 63.137 z M 74.822 50.302 c -0.209 0.137 -0.359 0.346 -0.422 0.587 c -0.641 2.473 -1.925 4.726 -3.714 6.515 c -4.46 4.459 -11.355 5.424 -16.833 2.497 l 3.661 -3.482 c 0.197 -0.188 0.309 -0.447 0.311 -0.719 c 0.002 -0.272 -0.107 -0.533 -0.303 -0.723 l -3.031 -2.947 c -0.387 -0.375 -0.999 -0.378 -1.388 -0.007 l -3.865 3.69 V 40.889 c 0 -0.552 -0.447 -1 -1 -1 h -4.275 c -0.552 0 -1 0.448 -1 1 v 7.186 l -4.745 -4.918 c -0.377 -0.391 -1.063 -0.391 -1.439 0 l -2.52 2.614 c -0.369 0.382 -0.374 0.986 -0.013 1.375 l 6.515 7.007 v 3.304 c -0.131 -0.041 -0.269 -0.068 -0.398 -0.112 c -0.353 -0.122 -0.749 -0.036 -1.021 0.227 c -5.57 5.38 -14.555 5.308 -20.029 -0.167 c -1.79 -1.79 -3.074 -4.043 -3.713 -6.515 c -0.063 -0.241 -0.213 -0.45 -0.422 -0.587 c -4.073 -2.655 -6.504 -7.133 -6.504 -11.976 c 0 -4.75 2.352 -9.178 6.291 -11.845 c 0.332 -0.224 0.497 -0.625 0.421 -1.017 c -0.899 -4.672 0.569 -9.466 3.927 -12.825 c 3.359 -3.359 8.155 -4.827 12.825 -3.927 c 0.392 0.074 0.792 -0.09 1.017 -0.421 C 35.822 4.352 40.25 2 45 2 s 9.179 2.352 11.845 6.292 c 0.225 0.331 0.622 0.5 1.018 0.421 c 4.67 -0.898 9.467 0.568 12.824 3.927 c 3.359 3.359 4.827 8.153 3.927 12.825 c -0.075 0.393 0.091 0.792 0.422 1.017 c 3.939 2.667 6.291 7.095 6.291 11.845 C 81.326 43.169 78.895 47.646 74.822 50.302 z" style="stroke: none; stroke-width: 1; stroke-dasharray: none; stroke-linecap: butt; stroke-linejoin: miter; stroke-miterlimit: 10; fill: rgb(0,0,0); fill-rule: nonzero; opacity: 1;" transform=" matrix(1 0 0 1 0 0) " stroke-linecap="round" />
</g>
</svg>